<svg xmlns="http://www.w3.org/2000/svg" xmlns:xlink="http://www.w3.org/1999/xlink" id="processonSvg1000" viewBox="-3.0 -145.28124999999955 2751.0 2047.5624999999998" width="2751.0" height="2047.5624999999998"><defs id="ProcessOnDefs1001"/><g id="ProcessOnG1002"><path id="ProcessOnPath1003" d="M-3.0 -145.28124999999955H2748.0V1902.2812500000002H-3.0V-145.28124999999955Z" fill="none"/><g id="ProcessOnG1004"><g id="ProcessOnG1005" transform="matrix(1.0,0.0,0.0,1.0,1558.0,88.0)" opacity="1.0"><path id="ProcessOnPath1006" d="M18.0 0.0Q9.0 0.0 9.0 9.0L9.0 173.0Q9.0 182.0 0.0 182.0Q9.0 182.0 9.0 191.0L9.0 355.0Q9.0 364.0 18.0 364.0" stroke="#323232" stroke-width="2.0" stroke-dasharray="none" opacity="1.0" fill="none"/><path id="ProcessOnPath1007" d="M1152.0 364.0Q1161.0 364.0 1161.0 355.0L1161.0 191.0Q1161.0 182.0 1170.0 182.0Q1161.0 182.0 1161.0 173.0L1161.0 9.0Q1161.0 0.0 1152.0 0.0" stroke="#323232" stroke-width="2.0" stroke-dasharray="none" opacity="1.0" fill="none"/><path id="ProcessOnPath1008" d="M0.0 0.0L1170.0 0.0L1170.0 364.0L0.0 364.0Z" stroke="none" stroke-width="0.0" stroke-dasharray="none" opacity="1.0" fill="none"/></g><g id="ProcessOnG1009" transform="matrix(6.123233995736766E-17,1.0,-1.0,6.123233995736766E-17,2170.28125,685.0000000000005)" opacity="1.0"><path id="ProcessOnPath1010" d="M18.0 0.0Q9.0 0.0 9.0 9.0L9.0 994.7812499999999Q9.0 1003.7812499999999 0.0 1003.7812499999999Q9.0 1003.7812499999999 9.0 1012.7812499999999L9.0 1998.5624999999998Q9.0 2007.5624999999998 18.0 2007.5624999999998" stroke="#323232" stroke-width="2.0" stroke-dasharray="none" opacity="1.0" fill="none"/><path id="ProcessOnPath1011" d="M368.9999999999998 2007.5624999999998Q377.9999999999998 2007.5624999999998 377.9999999999998 1998.5624999999998L377.9999999999998 1012.7812499999999Q377.9999999999998 1003.7812499999999 386.9999999999998 1003.7812499999999Q377.9999999999998 1003.7812499999999 377.9999999999998 994.7812499999999L377.9999999999998 9.0Q377.9999999999998 0.0 368.9999999999998 0.0" stroke="#323232" stroke-width="2.0" stroke-dasharray="none" opacity="1.0" fill="none"/><path id="ProcessOnPath1012" d="M0.0 0.0L386.9999999999998 0.0L386.9999999999998 2007.5624999999998L0.0 2007.5624999999998Z" stroke="none" stroke-width="0.0" stroke-dasharray="none" opacity="1.0" fill="none"/></g><g id="ProcessOnG1013" transform="matrix(1.0,0.0,0.0,1.0,904.0,34.0)" opacity="1.0"><path id="ProcessOnPath1014" d="M18.0 0.0Q9.0 0.0 9.0 9.0L9.0 293.0Q9.0 302.0 0.0 302.0Q9.0 302.0 9.0 311.0L9.0 595.0Q9.0 604.0 18.0 604.0" stroke="#323232" stroke-width="2.0" stroke-dasharray="none" opacity="1.0" fill="none"/><path id="ProcessOnPath1015" d="M575.0 604.0Q584.0 604.0 584.0 595.0L584.0 311.0Q584.0 302.0 593.0 302.0Q584.0 302.0 584.0 293.0L584.0 9.0Q584.0 0.0 575.0 0.0" stroke="#323232" stroke-width="2.0" stroke-dasharray="none" opacity="1.0" fill="none"/><path id="ProcessOnPath1016" d="M0.0 0.0L593.0 0.0L593.0 604.0L0.0 604.0Z" stroke="none" stroke-width="0.0" stroke-dasharray="none" opacity="1.0" fill="none"/></g><g id="ProcessOnG1017" transform="matrix(1.0,0.0,0.0,1.0,1072.0,333.0)" opacity="1.0"><path id="ProcessOnPath1018" d="M18.0 0.0Q9.0 0.0 9.0 9.0L9.0 91.5Q9.0 100.5 0.0 100.5Q9.0 100.5 9.0 109.5L9.0 192.0Q9.0 201.0 18.0 201.0" stroke="#323232" stroke-width="2.0" stroke-dasharray="none" opacity="1.0" fill="none"/><path id="ProcessOnPath1019" d="M457.0 201.0Q466.0 201.0 466.0 192.0L466.0 109.5Q466.0 100.5 475.0 100.5Q466.0 100.5 466.0 91.5L466.0 9.0Q466.0 0.0 457.0 0.0" stroke="#323232" stroke-width="2.0" stroke-dasharray="none" opacity="1.0" fill="none"/><path id="ProcessOnPath1020" d="M0.0 0.0L475.0 0.0L475.0 201.0L0.0 201.0Z" stroke="none" stroke-width="0.0" stroke-dasharray="none" opacity="1.0" fill="none"/></g><g id="ProcessOnG1021" transform="matrix(1.0,0.0,0.0,1.0,113.0,270.0)" opacity="1.0"><path id="ProcessOnPath1022" d="M0.0 0.0L390.0 0.0L390.0 154.0L0.0 154.0Z" stroke="#323232" stroke-width="2.0" stroke-dasharray="none" opacity="1.0" fill="#ffffff"/><g id="ProcessOnG1023" transform="matrix(1.0,0.0,0.0,1.0,10.0,12.0)"><text id="ProcessOnText1024" fill="#000000" font-size="13" x="0.0" y="13.325" font-family="微软雅黑" font-weight="normal" font-style="normal" text-decoration="none" family="微软雅黑" text-anchor="start" size="13">@SpringBootApplication</text><text id="ProcessOnText1025" fill="#000000" font-size="13" x="0.0" y="29.575" font-family="微软雅黑" font-weight="normal" font-style="normal" text-decoration="none" family="微软雅黑" text-anchor="start" size="13">public class SpringApplicationBoot {</text><text id="ProcessOnText1026" fill="#000000" font-size="13" x="0.0" y="45.825" font-family="微软雅黑" font-weight="normal" font-style="normal" text-decoration="none" family="微软雅黑" text-anchor="start" size="13">    public static void main(String[] args) {</text><text id="ProcessOnText1027" fill="#000000" font-size="13" x="0.0" y="62.075" font-family="微软雅黑" font-weight="normal" font-style="normal" text-decoration="none" family="微软雅黑" text-anchor="start" size="13"></text><text id="ProcessOnText1028" fill="#000000" font-size="13" x="0.0" y="78.325" font-family="微软雅黑" font-weight="normal" font-style="normal" text-decoration="none" family="微软雅黑" text-anchor="start" size="13">SpringApplication.run(SpringApplicationBoot.class, args);</text><text id="ProcessOnText1029" fill="#000000" font-size="13" x="0.0" y="94.575" font-family="微软雅黑" font-weight="normal" font-style="normal" text-decoration="none" family="微软雅黑" text-anchor="start" size="13"></text><text id="ProcessOnText1030" fill="#000000" font-size="13" x="0.0" y="110.825" font-family="微软雅黑" font-weight="normal" font-style="normal" text-decoration="none" family="微软雅黑" text-anchor="start" size="13">    }</text><text id="ProcessOnText1031" fill="#000000" font-size="13" x="0.0" y="127.075" font-family="微软雅黑" font-weight="normal" font-style="normal" text-decoration="none" family="微软雅黑" text-anchor="start" size="13">}</text></g></g><g id="ProcessOnG1032" transform="matrix(1.0,0.0,0.0,1.0,600.0,287.75)" opacity="1.0"><path id="ProcessOnPath1033" d="M0.0 0.0L301.0 0.0L301.0 96.5L0.0 96.5Z" stroke="#323232" stroke-width="2.0" stroke-dasharray="none" opacity="1.0" fill="#ffffff"/><g id="ProcessOnG1034" transform="matrix(1.0,0.0,0.0,1.0,10.0,-0.5)"><text id="ProcessOnText1035" fill="#000000" font-size="13" x="0.0" y="13.325" font-family="微软雅黑" font-weight="normal" font-style="normal" text-decoration="none" family="微软雅黑" text-anchor="start" size="13">new SpringApplication(primarySources).run(a</text><text id="ProcessOnText1036" fill="#000000" font-size="13" x="0.0" y="29.575" font-family="微软雅黑" font-weight="normal" font-style="normal" text-decoration="none" family="微软雅黑" text-anchor="start" size="13">rgs);</text><text id="ProcessOnText1037" fill="#000000" font-size="13" x="0.0" y="45.825" font-family="微软雅黑" font-weight="normal" font-style="normal" text-decoration="none" family="微软雅黑" text-anchor="start" size="13"></text><text id="ProcessOnText1038" fill="#000000" font-size="13" x="0.0" y="62.075" font-family="微软雅黑" font-weight="normal" font-style="normal" text-decoration="none" family="微软雅黑" text-anchor="start" size="13">参数primarySources为我们的启动main类：co</text><text id="ProcessOnText1039" fill="#000000" font-size="13" x="0.0" y="78.325" font-family="微软雅黑" font-weight="normal" font-style="normal" text-decoration="none" family="微软雅黑" text-anchor="start" size="13">m.sdcuike.springboot.practice.SpringApplicati</text><text id="ProcessOnText1040" fill="#000000" font-size="13" x="0.0" y="94.575" font-family="微软雅黑" font-weight="normal" font-style="normal" text-decoration="none" family="微软雅黑" text-anchor="start" size="13">onBoot</text></g></g><g id="ProcessOnG1041" transform="matrix(1.0,0.0,0.0,1.0,506.0,317.0)" opacity="1.0"><path id="ProcessOnPath1042" d="M0.0 19.8L60.0 19.8L60.0 0.0L90.0 30.0L60.0 60.0L60.0 40.2L0.0 40.2L0.0 19.8Z" stroke="#323232" stroke-width="2.0" stroke-dasharray="none" opacity="1.0" fill="#ffffff"/></g><g id="ProcessOnG1043" transform="matrix(1.0,0.0,0.0,1.0,923.0,75.0)" opacity="1.0"><path id="ProcessOnPath1044" d="M0.0 4.0Q0.0 0.0 4.0 0.0L382.0 0.0Q386.0 0.0 386.0 4.0L386.0 36.0Q386.0 40.0 382.0 40.0L4.0 40.0Q0.0 40.0 0.0 36.0Z" stroke="#323232" stroke-width="2.0" stroke-dasharray="none" opacity="1.0" fill="#ffffff"/><g id="ProcessOnG1045" transform="matrix(1.0,0.0,0.0,1.0,10.0,3.75)"><text id="ProcessOnText1046" fill="#000000" font-size="13" x="0.0" y="13.325" font-family="微软雅黑" font-weight="normal" font-style="normal" text-decoration="none" family="微软雅黑" text-anchor="start" size="13">1.deduceWebApplicationType() 根据某些类存在否，判断</text><text id="ProcessOnText1047" fill="#000000" font-size="13" x="0.0" y="29.575" font-family="微软雅黑" font-weight="normal" font-style="normal" text-decoration="none" family="微软雅黑" text-anchor="start" size="13"></text></g></g><g id="ProcessOnG1048" transform="matrix(1.0,0.0,0.0,1.0,923.0,127.0)" opacity="1.0"><path id="ProcessOnPath1049" d="M0.0 4.0Q0.0 0.0 4.0 0.0L320.0 0.0Q324.0 0.0 324.0 4.0L324.0 25.0Q324.0 29.0 320.0 29.0L4.0 29.0Q0.0 29.0 0.0 25.0Z" stroke="#323232" stroke-width="2.0" stroke-dasharray="none" opacity="1.0" fill="#ffffff"/><g id="ProcessOnG1050" transform="matrix(1.0,0.0,0.0,1.0,10.0,-1.75)"><text id="ProcessOnText1051" fill="#000000" font-size="13" x="0.0" y="13.325" font-family="微软雅黑" font-weight="normal" font-style="normal" text-decoration="none" family="微软雅黑" text-anchor="start" size="13">2.set ApplicationContextInitializer</text><text id="ProcessOnText1052" fill="#000000" font-size="13" x="0.0" y="29.575" font-family="微软雅黑" font-weight="normal" font-style="normal" text-decoration="none" family="微软雅黑" text-anchor="start" size="13"></text></g></g><g id="ProcessOnG1053" transform="matrix(1.0,0.0,0.0,1.0,921.0,179.75)" opacity="1.0"><path id="ProcessOnPath1054" d="M0.0 4.0Q0.0 0.0 4.0 0.0L435.0 0.0Q439.0 0.0 439.0 4.0L439.0 41.0Q439.0 45.0 435.0 45.0L4.0 45.0Q0.0 45.0 0.0 41.0Z" stroke="#323232" stroke-width="2.0" stroke-dasharray="none" opacity="1.0" fill="#ffffff"/><g id="ProcessOnG1055" transform="matrix(1.0,0.0,0.0,1.0,10.0,14.375)"><text id="ProcessOnText1056" fill="#000000" font-size="13" x="0.0" y="13.325" font-family="微软雅黑" font-weight="normal" font-style="normal" text-decoration="none" family="微软雅黑" text-anchor="start" size="13">3.deduceMainApplicationClass()（我们的类SpringApplicationBoot）</text></g></g><g id="ProcessOnG1057" transform="matrix(1.0,0.0,0.0,1.0,921.0,239.0)" opacity="1.0"><path id="ProcessOnPath1058" d="M0.0 4.0Q0.0 0.0 4.0 0.0L633.0 0.0Q637.0 0.0 637.0 4.0L637.0 59.0Q637.0 63.0 633.0 63.0L4.0 63.0Q0.0 63.0 0.0 59.0Z" stroke="#323232" stroke-width="2.0" stroke-dasharray="none" opacity="1.0" fill="#ffffff"/><g id="ProcessOnG1059" transform="matrix(1.0,0.0,0.0,1.0,10.0,15.25)"><text id="ProcessOnText1060" fill="#000000" font-size="13" x="0.0" y="13.325" font-family="微软雅黑" font-weight="normal" font-style="normal" text-decoration="none" family="微软雅黑" text-anchor="start" size="13">4.createApplicationContext()-</text><text id="ProcessOnText1061" fill="#000000" font-size="13" x="0.0" y="29.575" font-family="微软雅黑" font-weight="normal" font-style="normal" text-decoration="none" family="微软雅黑" text-anchor="start" size="13">这里实例化AnnotationConfigServletWebServerApplicationContext</text></g></g><g id="ProcessOnG1062" transform="matrix(1.0,0.0,0.0,1.0,921.0,396.0)" opacity="1.0"><path id="ProcessOnPath1063" d="M0.0 4.0Q0.0 0.0 4.0 0.0L147.0 0.0Q151.0 0.0 151.0 4.0L151.0 52.0Q151.0 56.0 147.0 56.0L4.0 56.0Q0.0 56.0 0.0 52.0Z" stroke="#323232" stroke-width="2.0" stroke-dasharray="none" opacity="1.0" fill="#ffffff"/><g id="ProcessOnG1064" transform="matrix(1.0,0.0,0.0,1.0,10.0,19.875)"><text id="ProcessOnText1065" fill="#000000" font-size="13" x="0.0" y="13.325" font-family="微软雅黑" font-weight="normal" font-style="normal" text-decoration="none" family="微软雅黑" text-anchor="start" size="13">5.prepareContext</text></g></g><g id="ProcessOnG1066" transform="matrix(1.0,0.0,0.0,1.0,1089.0,329.0)" opacity="1.0"><path id="ProcessOnPath1067" d="M0.0 4.0Q0.0 0.0 4.0 0.0L257.0 0.0Q261.0 0.0 261.0 4.0L261.0 40.0Q261.0 44.0 257.0 44.0L4.0 44.0Q0.0 44.0 0.0 40.0Z" stroke="#323232" stroke-width="2.0" stroke-dasharray="none" opacity="1.0" fill="#ffffff"/><g id="ProcessOnG1068" transform="matrix(1.0,0.0,0.0,1.0,10.0,13.875)"><text id="ProcessOnText1069" fill="#000000" font-size="13" x="0.0" y="13.325" font-family="微软雅黑" font-weight="normal" font-style="normal" text-decoration="none" family="微软雅黑" text-anchor="start" size="13">applyInitializers</text></g></g><g id="ProcessOnG1070" transform="matrix(1.0,0.0,0.0,1.0,1085.0,396.0)" opacity="1.0"><path id="ProcessOnPath1071" d="M0.0 4.0Q0.0 0.0 4.0 0.0L342.0 0.0Q346.0 0.0 346.0 4.0L346.0 39.0Q346.0 43.0 342.0 43.0L4.0 43.0Q0.0 43.0 0.0 39.0Z" stroke="#323232" stroke-width="2.0" stroke-dasharray="none" opacity="1.0" fill="#ffffff"/><g id="ProcessOnG1072" transform="matrix(1.0,0.0,0.0,1.0,10.0,13.375)"><text id="ProcessOnText1073" fill="#000000" font-size="13" x="0.0" y="13.325" font-family="微软雅黑" font-weight="normal" font-style="normal" text-decoration="none" family="微软雅黑" text-anchor="start" size="13">load(ApplicationContext context, Object[] sources)</text></g></g><g id="ProcessOnG1074" transform="matrix(1.0,0.0,0.0,1.0,1089.0,459.0)" opacity="1.0"><path id="ProcessOnPath1075" d="M0.0 4.0Q0.0 0.0 4.0 0.0L374.0 0.0Q378.0 0.0 378.0 4.0L378.0 65.0Q378.0 69.0 374.0 69.0L4.0 69.0Q0.0 69.0 0.0 65.0Z" stroke="#323232" stroke-width="2.0" stroke-dasharray="none" opacity="1.0" fill="#ffffff"/><g id="ProcessOnG1076" transform="matrix(1.0,0.0,0.0,1.0,10.0,10.125)"><text id="ProcessOnText1077" fill="#000000" font-size="13" x="0.0" y="13.325" font-family="微软雅黑" font-weight="normal" font-style="normal" text-decoration="none" family="微软雅黑" text-anchor="start" size="13">org.springframework.context.annotation.AnnotatedBeanD</text><text id="ProcessOnText1078" fill="#000000" font-size="13" x="0.0" y="29.575" font-family="微软雅黑" font-weight="normal" font-style="normal" text-decoration="none" family="微软雅黑" text-anchor="start" size="13">efinitionReader#registerBean(java.lang.Class&lt;?&gt;) 实例化我</text><text id="ProcessOnText1079" fill="#000000" font-size="13" x="0.0" y="45.825" font-family="微软雅黑" font-weight="normal" font-style="normal" text-decoration="none" family="微软雅黑" text-anchor="start" size="13">们的SpringApplicationBoot类,注册bean，并处理相关注解</text></g></g><g id="ProcessOnG1080" transform="matrix(1.0,0.0,0.0,1.0,917.0,614.0)" opacity="1.0"><path id="ProcessOnPath1081" d="M0.0 4.0Q0.0 0.0 4.0 0.0L539.0 0.0Q543.0 0.0 543.0 4.0L543.0 56.0Q543.0 60.0 539.0 60.0L4.0 60.0Q0.0 60.0 0.0 56.0Z" stroke="#323232" stroke-width="2.0" stroke-dasharray="none" opacity="1.0" fill="#ffffff"/><g id="ProcessOnG1082" transform="matrix(1.0,0.0,0.0,1.0,10.0,5.625)"><text id="ProcessOnText1083" fill="#000000" font-size="13" x="0.0" y="13.325" font-family="微软雅黑" font-weight="normal" font-style="normal" text-decoration="none" family="微软雅黑" text-anchor="start" size="13">6、org.springframework.boot.SpringApplication#refreshContext.  ---&gt;(回到了经典的s</text><text id="ProcessOnText1084" fill="#000000" font-size="13" x="0.0" y="29.575" font-family="微软雅黑" font-weight="normal" font-style="normal" text-decoration="none" family="微软雅黑" text-anchor="start" size="13">pring的初始化流程）</text><text id="ProcessOnText1085" fill="#000000" font-size="13" x="0.0" y="45.825" font-family="微软雅黑" font-weight="normal" font-style="normal" text-decoration="none" family="微软雅黑" text-anchor="start" size="13">org.springframework.context.support.AbstractApplicationContext#refresh</text></g></g><g id="ProcessOnG1086" transform="matrix(1.0,0.0,0.0,1.0,17.0,707.0)" opacity="1.0"><path id="ProcessOnPath1087" d="M0.0 4.0Q0.0 0.0 4.0 0.0L218.0 0.0Q222.0 0.0 222.0 4.0L222.0 52.0Q222.0 56.0 218.0 56.0L4.0 56.0Q0.0 56.0 0.0 52.0Z" stroke="#323232" stroke-width="2.0" stroke-dasharray="none" opacity="1.0" fill="#ffffff"/><g id="ProcessOnG1088" transform="matrix(1.0,0.0,0.0,1.0,10.0,3.625)"><text id="ProcessOnText1089" fill="#000000" font-size="13" x="0.0" y="13.325" font-family="微软雅黑" font-weight="normal" font-style="normal" text-decoration="none" family="微软雅黑" text-anchor="start" size="13">org.springframework.context.su</text><text id="ProcessOnText1090" fill="#000000" font-size="13" x="0.0" y="29.575" font-family="微软雅黑" font-weight="normal" font-style="normal" text-decoration="none" family="微软雅黑" text-anchor="start" size="13">pport.AbstractApplicationConte</text><text id="ProcessOnText1091" fill="#000000" font-size="13" x="0.0" y="45.825" font-family="微软雅黑" font-weight="normal" font-style="normal" text-decoration="none" family="微软雅黑" text-anchor="start" size="13">xt#prepareRefresh</text></g></g><g id="ProcessOnG1092" transform="matrix(1.0,0.0,0.0,1.0,497.0,703.0)" opacity="1.0"><path id="ProcessOnPath1093" d="M0.0 4.0Q0.0 0.0 4.0 0.0L219.0 0.0Q223.0 0.0 223.0 4.0L223.0 96.0Q223.0 100.0 219.0 100.0L4.0 100.0Q0.0 100.0 0.0 96.0Z" stroke="#323232" stroke-width="2.0" stroke-dasharray="none" opacity="1.0" fill="#ffffff"/><g id="ProcessOnG1094" transform="matrix(1.0,0.0,0.0,1.0,10.0,1.25)"><text id="ProcessOnText1095" fill="#000000" font-size="13" x="0.0" y="13.325" font-family="微软雅黑" font-weight="normal" font-style="normal" text-decoration="none" family="微软雅黑" text-anchor="start" size="13">org.springframework.context.su</text><text id="ProcessOnText1096" fill="#000000" font-size="13" x="0.0" y="29.575" font-family="微软雅黑" font-weight="normal" font-style="normal" text-decoration="none" family="微软雅黑" text-anchor="start" size="13">pport.AbstractApplicationConte</text><text id="ProcessOnText1097" fill="#000000" font-size="13" x="0.0" y="45.825" font-family="微软雅黑" font-weight="normal" font-style="normal" text-decoration="none" family="微软雅黑" text-anchor="start" size="13">xt#prepareBeanFactory</text><text id="ProcessOnText1098" fill="#000000" font-size="13" x="0.0" y="62.075" font-family="微软雅黑" font-weight="normal" font-style="normal" text-decoration="none" family="微软雅黑" text-anchor="start" size="13">（1）the context's ClassLoader</text><text id="ProcessOnText1099" fill="#000000" font-size="13" x="0.0" y="78.325" font-family="微软雅黑" font-weight="normal" font-style="normal" text-decoration="none" family="微软雅黑" text-anchor="start" size="13">（2）....</text><text id="ProcessOnText1100" fill="#000000" font-size="13" x="0.0" y="94.575" font-family="微软雅黑" font-weight="normal" font-style="normal" text-decoration="none" family="微软雅黑" text-anchor="start" size="13">（3）post-processors</text></g></g><g id="ProcessOnG1101" transform="matrix(1.0,0.0,0.0,1.0,991.0,703.0)" opacity="1.0"><path id="ProcessOnPath1102" d="M0.0 4.0Q0.0 0.0 4.0 0.0L407.0 0.0Q411.0 0.0 411.0 4.0L411.0 369.0Q411.0 373.0 407.0 373.0L4.0 373.0Q0.0 373.0 0.0 369.0Z" stroke="#323232" stroke-width="2.0" stroke-dasharray="none" opacity="1.0" fill="#ffffff"/><g id="ProcessOnG1103" transform="matrix(1.0,0.0,0.0,1.0,10.0,32.125)"><text id="ProcessOnText1104" fill="#000000" font-size="13" x="0.0" y="13.325" font-family="微软雅黑" font-weight="normal" font-style="normal" text-decoration="none" family="微软雅黑" text-anchor="start" size="13">org.springframework.context.support.AbstractApplicationCont</text><text id="ProcessOnText1105" fill="#000000" font-size="13" x="0.0" y="29.575" font-family="微软雅黑" font-weight="normal" font-style="normal" text-decoration="none" family="微软雅黑" text-anchor="start" size="13">ext#invokeBeanFactoryPostProcessors</text><text id="ProcessOnText1106" fill="#000000" font-size="13" x="0.0" y="45.825" font-family="微软雅黑" font-weight="normal" font-style="normal" text-decoration="none" family="微软雅黑" text-anchor="start" size="13">;此阶段ConfigurationClassPostProcessor处理我们的SpringApplic</text><text id="ProcessOnText1107" fill="#000000" font-size="13" x="0.0" y="62.075" font-family="微软雅黑" font-weight="normal" font-style="normal" text-decoration="none" family="微软雅黑" text-anchor="start" size="13">ationBoot 类,其中org.springframework.context.annotation.Conf</text><text id="ProcessOnText1108" fill="#000000" font-size="13" x="0.0" y="78.325" font-family="微软雅黑" font-weight="normal" font-style="normal" text-decoration="none" family="微软雅黑" text-anchor="start" size="13">igurationClassParser#parse(java.util.Set&lt;org.springframework.b</text><text id="ProcessOnText1109" fill="#000000" font-size="13" x="0.0" y="94.575" font-family="微软雅黑" font-weight="normal" font-style="normal" text-decoration="none" family="微软雅黑" text-anchor="start" size="13">eans.factory.config.BeanDefinitionHolder&gt;)功能；</text><text id="ProcessOnText1110" fill="#000000" font-size="13" x="0.0" y="110.825" font-family="微软雅黑" font-weight="normal" font-style="normal" text-decoration="none" family="微软雅黑" text-anchor="start" size="13">（1）Recursively process any member (nested) classes first</text><text id="ProcessOnText1111" fill="#000000" font-size="13" x="0.0" y="127.075" font-family="微软雅黑" font-weight="normal" font-style="normal" text-decoration="none" family="微软雅黑" text-anchor="start" size="13">（2）Process any @PropertySource annotations</text><text id="ProcessOnText1112" fill="#000000" font-size="13" x="0.0" y="143.325" font-family="微软雅黑" font-weight="normal" font-style="normal" text-decoration="none" family="微软雅黑" text-anchor="start" size="13">（3）Process any @ComponentScan annotations</text><text id="ProcessOnText1113" fill="#000000" font-size="13" x="0.0" y="159.575" font-family="微软雅黑" font-weight="normal" font-style="normal" text-decoration="none" family="微软雅黑" text-anchor="start" size="13">（4）Process any @Import annotations</text><text id="ProcessOnText1114" fill="#000000" font-size="13" x="0.0" y="175.825" font-family="微软雅黑" font-weight="normal" font-style="normal" text-decoration="none" family="微软雅黑" text-anchor="start" size="13">（5）Process any @ImportResource annotations</text><text id="ProcessOnText1115" fill="#000000" font-size="13" x="0.0" y="192.075" font-family="微软雅黑" font-weight="normal" font-style="normal" text-decoration="none" family="微软雅黑" text-anchor="start" size="13">（6）Process individual @Bean methods</text><text id="ProcessOnText1116" fill="#000000" font-size="13" x="0.0" y="208.325" font-family="微软雅黑" font-weight="normal" font-style="normal" text-decoration="none" family="微软雅黑" text-anchor="start" size="13">（7） Process default methods on interfaces</text><text id="ProcessOnText1117" fill="#000000" font-size="13" x="0.0" y="224.575" font-family="微软雅黑" font-weight="normal" font-style="normal" text-decoration="none" family="微软雅黑" text-anchor="start" size="13">（8）Process superclass, if any</text><text id="ProcessOnText1118" fill="#000000" font-size="13" x="0.0" y="240.825" font-family="微软雅黑" font-weight="normal" font-style="normal" text-decoration="none" family="微软雅黑" text-anchor="start" size="13">（9org.springframework.context.annotation.ConfigurationClass</text><text id="ProcessOnText1119" fill="#000000" font-size="13" x="0.0" y="257.075" font-family="微软雅黑" font-weight="normal" font-style="normal" text-decoration="none" family="微软雅黑" text-anchor="start" size="13">Parser#processDeferredImportSelectors，此阶段会处理spring b</text><text id="ProcessOnText1120" fill="#000000" font-size="13" x="0.0" y="273.325" font-family="微软雅黑" font-weight="normal" font-style="normal" text-decoration="none" family="微软雅黑" text-anchor="start" size="13">oot的注解@EnableAutoConfiguration中的注解@Import(AutoCo</text><text id="ProcessOnText1121" fill="#000000" font-size="13" x="0.0" y="289.575" font-family="微软雅黑" font-weight="normal" font-style="normal" text-decoration="none" family="微软雅黑" text-anchor="start" size="13">nfigurationImportSelector.class)，AutoConfigurationImportSel</text><text id="ProcessOnText1122" fill="#000000" font-size="13" x="0.0" y="305.825" font-family="微软雅黑" font-weight="normal" font-style="normal" text-decoration="none" family="微软雅黑" text-anchor="start" size="13">ector加载约定好的自动配置类</text></g></g><g id="ProcessOnG1123" transform="matrix(1.0,0.0,0.0,1.0,1431.0,699.0)" opacity="1.0"><path id="ProcessOnPath1124" d="M0.0 4.0Q0.0 0.0 4.0 0.0L217.0 0.0Q221.0 0.0 221.0 4.0L221.0 127.0Q221.0 131.0 217.0 131.0L4.0 131.0Q0.0 131.0 0.0 127.0Z" stroke="#323232" stroke-width="2.0" stroke-dasharray="none" opacity="1.0" fill="#ffffff"/><g id="ProcessOnG1125" transform="matrix(1.0,0.0,0.0,1.0,10.0,41.125)"><text id="ProcessOnText1126" fill="#000000" font-size="13" x="0.0" y="13.325" font-family="微软雅黑" font-weight="normal" font-style="normal" text-decoration="none" family="微软雅黑" text-anchor="start" size="13">org.springframework.context.su</text><text id="ProcessOnText1127" fill="#000000" font-size="13" x="0.0" y="29.575" font-family="微软雅黑" font-weight="normal" font-style="normal" text-decoration="none" family="微软雅黑" text-anchor="start" size="13">pport.AbstractApplicationConte</text><text id="ProcessOnText1128" fill="#000000" font-size="13" x="0.0" y="45.825" font-family="微软雅黑" font-weight="normal" font-style="normal" text-decoration="none" family="微软雅黑" text-anchor="start" size="13">xt#registerBeanPostProcessors</text></g></g><g id="ProcessOnG1129" transform="matrix(1.0,0.0,0.0,1.0,1690.0,697.0)" opacity="1.0"><path id="ProcessOnPath1130" d="M0.0 4.0Q0.0 0.0 4.0 0.0L234.0 0.0Q238.0 0.0 238.0 4.0L238.0 79.0Q238.0 83.0 234.0 83.0L4.0 83.0Q0.0 83.0 0.0 79.0Z" stroke="#323232" stroke-width="2.0" stroke-dasharray="none" opacity="1.0" fill="#ffffff"/><g id="ProcessOnG1131" transform="matrix(1.0,0.0,0.0,1.0,10.0,0.875)"><text id="ProcessOnText1132" fill="#000000" font-size="13" x="0.0" y="13.325" font-family="微软雅黑" font-weight="normal" font-style="normal" text-decoration="none" family="微软雅黑" text-anchor="start" size="13">org.springframework.context.supp</text><text id="ProcessOnText1133" fill="#000000" font-size="13" x="0.0" y="29.575" font-family="微软雅黑" font-weight="normal" font-style="normal" text-decoration="none" family="微软雅黑" text-anchor="start" size="13">ort.AbstractApplicationContext#on</text><text id="ProcessOnText1134" fill="#000000" font-size="13" x="0.0" y="45.825" font-family="微软雅黑" font-weight="normal" font-style="normal" text-decoration="none" family="微软雅黑" text-anchor="start" size="13">Refresh</text><text id="ProcessOnText1135" fill="#000000" font-size="13" x="0.0" y="62.075" font-family="微软雅黑" font-weight="normal" font-style="normal" text-decoration="none" family="微软雅黑" text-anchor="start" size="13">创建web  服务器</text><text id="ProcessOnText1136" fill="#000000" font-size="13" x="0.0" y="78.325" font-family="微软雅黑" font-weight="normal" font-style="normal" text-decoration="none" family="微软雅黑" text-anchor="start" size="13"></text></g></g><g id="ProcessOnG1137" transform="matrix(1.0,0.0,0.0,1.0,1965.0,707.0)" opacity="1.0"><path id="ProcessOnPath1138" d="M0.0 4.0Q0.0 0.0 4.0 0.0L215.0 0.0Q219.0 0.0 219.0 4.0L219.0 72.0Q219.0 76.0 215.0 76.0L4.0 76.0Q0.0 76.0 0.0 72.0Z" stroke="#323232" stroke-width="2.0" stroke-dasharray="none" opacity="1.0" fill="#ffffff"/><g id="ProcessOnG1139" transform="matrix(1.0,0.0,0.0,1.0,10.0,5.5)"><text id="ProcessOnText1140" fill="#000000" font-size="13" x="98.5" y="13.325" font-family="微软雅黑" font-weight="normal" font-style="normal" text-decoration="none" family="微软雅黑" text-anchor="middle" size="13">org.springframework.context.su</text><text id="ProcessOnText1141" fill="#000000" font-size="13" x="98.5" y="29.575" font-family="微软雅黑" font-weight="normal" font-style="normal" text-decoration="none" family="微软雅黑" text-anchor="middle" size="13">pport.AbstractApplicationConte</text><text id="ProcessOnText1142" fill="#000000" font-size="13" x="98.5" y="45.825" font-family="微软雅黑" font-weight="normal" font-style="normal" text-decoration="none" family="微软雅黑" text-anchor="middle" size="13">xt#finishBeanFactoryInitializatio</text><text id="ProcessOnText1143" fill="#000000" font-size="13" x="98.5" y="62.075" font-family="微软雅黑" font-weight="normal" font-style="normal" text-decoration="none" family="微软雅黑" text-anchor="middle" size="13">n</text></g></g><g id="ProcessOnG1144" transform="matrix(1.0,0.0,0.0,1.0,254.0,700.0)" opacity="1.0"><path id="ProcessOnPath1145" d="M0.0 4.0Q0.0 0.0 4.0 0.0L218.0 0.0Q222.0 0.0 222.0 4.0L222.0 102.0Q222.0 106.0 218.0 106.0L4.0 106.0Q0.0 106.0 0.0 102.0Z" stroke="#323232" stroke-width="2.0" stroke-dasharray="none" opacity="1.0" fill="#ffffff"/><g id="ProcessOnG1146" transform="matrix(1.0,0.0,0.0,1.0,10.0,28.625)"><text id="ProcessOnText1147" fill="#000000" font-size="13" x="100.0" y="13.325" font-family="微软雅黑" font-weight="normal" font-style="normal" text-decoration="none" family="微软雅黑" text-anchor="middle" size="13">org.springframework.context.su</text><text id="ProcessOnText1148" fill="#000000" font-size="13" x="100.0" y="29.575" font-family="微软雅黑" font-weight="normal" font-style="normal" text-decoration="none" family="微软雅黑" text-anchor="middle" size="13">pport.AbstractApplicationConte</text><text id="ProcessOnText1149" fill="#000000" font-size="13" x="100.0" y="45.825" font-family="微软雅黑" font-weight="normal" font-style="normal" text-decoration="none" family="微软雅黑" text-anchor="middle" size="13">xt#obtainFreshBeanFactory</text></g></g><g id="ProcessOnG1150" transform="matrix(1.0,0.0,0.0,1.0,744.0,703.0)" opacity="1.0"><path id="ProcessOnPath1151" d="M0.0 4.0Q0.0 0.0 4.0 0.0L221.0 0.0Q225.0 0.0 225.0 4.0L225.0 123.0Q225.0 127.0 221.0 127.0L4.0 127.0Q0.0 127.0 0.0 123.0Z" stroke="#323232" stroke-width="2.0" stroke-dasharray="none" opacity="1.0" fill="#ffffff"/><g id="ProcessOnG1152" transform="matrix(1.0,0.0,0.0,1.0,10.0,6.625)"><text id="ProcessOnText1153" fill="#000000" font-size="13" x="0.0" y="13.325" font-family="微软雅黑" font-weight="normal" font-style="normal" text-decoration="none" family="微软雅黑" text-anchor="start" size="13">org.springframework.context.sup</text><text id="ProcessOnText1154" fill="#000000" font-size="13" x="0.0" y="29.575" font-family="微软雅黑" font-weight="normal" font-style="normal" text-decoration="none" family="微软雅黑" text-anchor="start" size="13">port.AbstractApplicationContext</text><text id="ProcessOnText1155" fill="#000000" font-size="13" x="0.0" y="45.825" font-family="微软雅黑" font-weight="normal" font-style="normal" text-decoration="none" family="微软雅黑" text-anchor="start" size="13">#postProcessBeanFactory</text><text id="ProcessOnText1156" fill="#000000" font-size="13" x="0.0" y="62.075" font-family="微软雅黑" font-weight="normal" font-style="normal" text-decoration="none" family="微软雅黑" text-anchor="start" size="13"></text><text id="ProcessOnText1157" fill="#000000" font-size="13" x="0.0" y="78.325" font-family="微软雅黑" font-weight="normal" font-style="normal" text-decoration="none" family="微软雅黑" text-anchor="start" size="13">Allows post-processing of the </text><text id="ProcessOnText1158" fill="#000000" font-size="13" x="0.0" y="94.575" font-family="微软雅黑" font-weight="normal" font-style="normal" text-decoration="none" family="微软雅黑" text-anchor="start" size="13">bean factory in context </text><text id="ProcessOnText1159" fill="#000000" font-size="13" x="0.0" y="110.825" font-family="微软雅黑" font-weight="normal" font-style="normal" text-decoration="none" family="微软雅黑" text-anchor="start" size="13">subclasses</text></g></g><g id="ProcessOnG1160" transform="matrix(1.0,0.0,0.0,1.0,1583.0,98.0)" opacity="1.0"><path id="ProcessOnPath1161" d="M0.0 4.0Q0.0 0.0 4.0 0.0L1031.0 0.0Q1035.0 0.0 1035.0 4.0L1035.0 215.0Q1035.0 219.0 1031.0 219.0L4.0 219.0Q0.0 219.0 0.0 215.0Z" stroke="#323232" stroke-width="2.0" stroke-dasharray="none" opacity="1.0" fill="#ffffff"/><g id="ProcessOnG1162" transform="matrix(1.0,0.0,0.0,1.0,10.0,3.875)"><text id="ProcessOnText1163" fill="#000000" font-size="13" x="0.0" y="13.325" font-family="微软雅黑" font-weight="normal" font-style="normal" text-decoration="none" family="微软雅黑" text-anchor="start" size="13">AnnotatedBeanDefinitionReader调用</text><text id="ProcessOnText1164" fill="#000000" font-size="13" x="0.0" y="29.575" font-family="微软雅黑" font-weight="normal" font-style="normal" text-decoration="none" family="微软雅黑" text-anchor="start" size="13">org.springframework.context.annotation.AnnotationConfigUtils#registerAnnotationConfigProcessors(org.springframework.beans.factory.support.BeanDefinitionRegis</text><text id="ProcessOnText1165" fill="#000000" font-size="13" x="0.0" y="45.825" font-family="微软雅黑" font-weight="normal" font-style="normal" text-decoration="none" family="微软雅黑" text-anchor="start" size="13">try, java.lang.Object)：</text><text id="ProcessOnText1166" fill="#000000" font-size="13" x="0.0" y="62.075" font-family="微软雅黑" font-weight="normal" font-style="normal" text-decoration="none" family="微软雅黑" text-anchor="start" size="13">功能：</text><text id="ProcessOnText1167" fill="#000000" font-size="13" x="0.0" y="78.325" font-family="微软雅黑" font-weight="normal" font-style="normal" text-decoration="none" family="微软雅黑" text-anchor="start" size="13">Register all relevant annotation post processors ：BeanFactoryPostProcessor、BeanPostProcessor</text><text id="ProcessOnText1168" fill="#000000" font-size="13" x="0.0" y="94.575" font-family="微软雅黑" font-weight="normal" font-style="normal" text-decoration="none" family="微软雅黑" text-anchor="start" size="13"></text><text id="ProcessOnText1169" fill="#000000" font-size="13" x="0.0" y="110.825" font-family="微软雅黑" font-weight="normal" font-style="normal" text-decoration="none" family="微软雅黑" text-anchor="start" size="13">ConfigurationClassPostProcessor 处理 带有注解@Configuration的类</text><text id="ProcessOnText1170" fill="#000000" font-size="13" x="0.0" y="127.075" font-family="微软雅黑" font-weight="normal" font-style="normal" text-decoration="none" family="微软雅黑" text-anchor="start" size="13">AutowiredAnnotationBeanPostProcessor</text><text id="ProcessOnText1171" fill="#000000" font-size="13" x="0.0" y="143.325" font-family="微软雅黑" font-weight="normal" font-style="normal" text-decoration="none" family="微软雅黑" text-anchor="start" size="13">RequiredAnnotationBeanPostProcessor</text><text id="ProcessOnText1172" fill="#000000" font-size="13" x="0.0" y="159.575" font-family="微软雅黑" font-weight="normal" font-style="normal" text-decoration="none" family="微软雅黑" text-anchor="start" size="13">CommonAnnotationBeanPostProcessor</text><text id="ProcessOnText1173" fill="#000000" font-size="13" x="0.0" y="175.825" font-family="微软雅黑" font-weight="normal" font-style="normal" text-decoration="none" family="微软雅黑" text-anchor="start" size="13">EventListenerMethodProcessor</text><text id="ProcessOnText1174" fill="#000000" font-size="13" x="0.0" y="192.075" font-family="微软雅黑" font-weight="normal" font-style="normal" text-decoration="none" family="微软雅黑" text-anchor="start" size="13">DefaultEventListenerFactory</text><text id="ProcessOnText1175" fill="#000000" font-size="13" x="0.0" y="208.325" font-family="微软雅黑" font-weight="normal" font-style="normal" text-decoration="none" family="微软雅黑" text-anchor="start" size="13"></text></g></g><g id="ProcessOnG1176" transform="matrix(1.0,0.0,0.0,1.0,1588.0,354.0)" opacity="1.0"><path id="ProcessOnPath1177" d="M0.0 4.0Q0.0 0.0 4.0 0.0L1021.0 0.0Q1025.0 0.0 1025.0 4.0L1025.0 101.0Q1025.0 105.0 1021.0 105.0L4.0 105.0Q0.0 105.0 0.0 101.0Z" stroke="#323232" stroke-width="2.0" stroke-dasharray="none" opacity="1.0" fill="#ffffff"/><g id="ProcessOnG1178" transform="matrix(1.0,0.0,0.0,1.0,10.0,3.75)"><text id="ProcessOnText1179" fill="#000000" font-size="13" x="0.0" y="13.325" font-family="微软雅黑" font-weight="normal" font-style="normal" text-decoration="none" family="微软雅黑" text-anchor="start" size="13">org.springframework.context.annotation.ClassPathScanningCandidateComponentProvider#registerDefaultFilters</text><text id="ProcessOnText1180" fill="#000000" font-size="13" x="0.0" y="29.575" font-family="微软雅黑" font-weight="normal" font-style="normal" text-decoration="none" family="微软雅黑" text-anchor="start" size="13">作用：</text><text id="ProcessOnText1181" fill="#000000" font-size="13" x="0.0" y="45.825" font-family="微软雅黑" font-weight="normal" font-style="normal" text-decoration="none" family="微软雅黑" text-anchor="start" size="13">This will implicitly register all annotations that have the @Component meta-annotation including the @Repository, @Service, and @Controller stereotype annotatio</text><text id="ProcessOnText1182" fill="#000000" font-size="13" x="0.0" y="62.075" font-family="微软雅黑" font-weight="normal" font-style="normal" text-decoration="none" family="微软雅黑" text-anchor="start" size="13">ns.</text><text id="ProcessOnText1183" fill="#000000" font-size="13" x="0.0" y="78.325" font-family="微软雅黑" font-weight="normal" font-style="normal" text-decoration="none" family="微软雅黑" text-anchor="start" size="13"></text><text id="ProcessOnText1184" fill="#000000" font-size="13" x="0.0" y="94.575" font-family="微软雅黑" font-weight="normal" font-style="normal" text-decoration="none" family="微软雅黑" text-anchor="start" size="13"></text></g></g></g></g></svg>